<svg width="50" height="50" viewBox="0 0 50 50" fill="none" xmlns="http://www.w3.org/2000/svg">
<path d="M45 40C45 39.4477 45.4477 39 46 39H48C48.5523 39 49 39.4477 49 40V42C49 42.5523 48.5523 43 48 43H46C45.4477 43 45 42.5523 45 42V40Z" fill="#F4BE7E"/>
<path d="M11.8 20.3C11.5 20.3 11.35 20.4667 11.35 20.8V35.45C11.35 36.8833 11.6167 37.8667 12.15 38.4C12.6833 38.9 13.5 39.15 14.6 39.15H17.8C18 39.15 18.15 39.2167 18.25 39.35C18.35 39.45 18.4 39.5833 18.4 39.75V41.9C18.4 42.3333 18.15 42.6167 17.65 42.75C17.2167 42.8167 16.6833 42.8667 16.05 42.9C15.4167 42.9333 14.7833 42.9667 14.15 43C13.55 43 13.0167 43 12.55 43C10.3833 43 8.75 42.5 7.65 41.5C6.58333 40.4667 6.05 38.8833 6.05 36.75V20.9C6.05 20.5 5.88333 20.3 5.55 20.3H1.8C1.36667 20.3 1.15 20.1 1.15 19.7V17.05C1.15 16.6833 1.35 16.5 1.75 16.5H5.75C6.01667 16.5 6.15 16.35 6.15 16.05L6.75 8.2C6.78333 7.73333 6.98333 7.5 7.35 7.5H10.8C11.2333 7.5 11.45 7.76667 11.45 8.3V16.05C11.45 16.35 11.6 16.5 11.9 16.5H17.9C18.3 16.5 18.5 16.6833 18.5 17.05V19.7C18.5 20.1 18.2667 20.3 17.8 20.3H11.8ZM34.2348 16C36.1014 16 37.7181 16.3167 39.0848 16.95C40.4848 17.55 41.6514 18.3667 42.5848 19.4C43.5514 20.4 44.3181 21.4833 44.8848 22.65C45.0848 23.1167 44.9681 23.4 44.5348 23.5L40.9848 24.1C40.6848 24.1667 40.4681 24.0333 40.3348 23.7C39.7681 22.8333 39.2014 22.1167 38.6348 21.55C38.0681 20.9833 37.4514 20.5333 36.7848 20.2C36.1181 19.8667 35.3514 19.7 34.4848 19.7C32.9514 19.7 31.6014 20.1 30.4348 20.9C29.3014 21.6667 28.4181 22.8 27.7848 24.3C27.1848 25.8 26.8848 27.6167 26.8848 29.75C26.8848 31.8833 27.2014 33.7167 27.8348 35.25C28.4681 36.75 29.3681 37.9 30.5348 38.7C31.7014 39.4667 33.0848 39.85 34.6848 39.85C36.2514 39.85 37.5681 39.45 38.6348 38.65C39.7014 37.85 40.6848 36.7167 41.5848 35.25C41.6848 35.1167 41.7681 35.0333 41.8348 35C41.9348 34.9667 42.0848 34.9833 42.2848 35.05L44.9348 35.85C45.2014 35.95 45.2681 36.2 45.1348 36.6C44.7348 37.4333 44.2014 38.2667 43.5348 39.1C42.9014 39.9333 42.1348 40.6833 41.2348 41.35C40.3681 41.9833 39.3514 42.5 38.1848 42.9C37.0181 43.3 35.7014 43.5 34.2348 43.5C31.7348 43.5 29.5181 42.9333 27.5848 41.8C25.6848 40.6333 24.1848 39.0333 23.0848 37C22.0181 34.9333 21.4848 32.55 21.4848 29.85C21.4848 27.1167 22.0348 24.7167 23.1348 22.65C24.2348 20.5833 25.7348 18.9667 27.6348 17.8C29.5681 16.6 31.7681 16 34.2348 16Z" fill="#959BA4"/>
</svg>
